<?xml version="1.0" encoding="iso-8859-1"?>
<!-- Generator: Adobe Illustrator 21.1.0, SVG Export Plug-In . SVG Version: 6.00 Build 0)  -->
<svg version="1.1" id="Capa_1" xmlns="http://www.w3.org/2000/svg" xmlns:xlink="http://www.w3.org/1999/xlink" x="0px" y="0px"
	 viewBox="0 0 106.5 24.606" style="enable-background:new 0 0 106.5 24.606;" xml:space="preserve">
<g>
	<g>
		<linearGradient id="SVGID_1_" gradientUnits="userSpaceOnUse" x1="0.1972" y1="12.3028" x2="24.1971" y2="12.3028">
			<stop  offset="0" style="stop-color:#EF5375"/>
			<stop  offset="1" style="stop-color:#F16522"/>
		</linearGradient>
		<path style="fill:url(#SVGID_1_);" d="M24.197,12.302c0,6.627-5.373,12-12,12c-6.627,0-12-5.374-12-12c0-6.627,5.373-12,12-12
			C18.824,0.303,24.197,5.676,24.197,12.302"/>
		<rect x="42.009" y="3" style="fill:#F16522;" width="2.535" height="14.554"/>
		<path style="fill:#F16522;" d="M100.929,6.722c-2.963,0-5.373,2.486-5.373,5.543c0,3.057,2.411,5.544,5.373,5.544
			c2.963,0,5.374-2.487,5.374-5.544C106.303,9.208,103.892,6.722,100.929,6.722 M100.929,15.298c-1.624,0-2.945-1.36-2.945-3.033
			s1.321-3.034,2.945-3.034c1.624,0,2.945,1.361,2.945,3.034S102.553,15.298,100.929,15.298"/>
		<path style="fill:#F16522;" d="M59.468,17.575h2.456v-6.153c0-2.868-1.788-4.721-4.555-4.721c-1.29,0-2.446,0.53-3.257,1.493
			l-0.094,0.112l-0.091-0.114c-0.768-0.961-1.923-1.491-3.255-1.491c-2.719,0-4.618,1.94-4.618,4.721v6.153h2.456v-6.216
			c0-1.286,0.89-2.182,2.162-2.182c1.876,0,2.079,1.526,2.079,2.182v6.216h2.456v-6.216c0-1.286,0.889-2.182,2.161-2.182
			c1.948,0,2.1,1.671,2.1,2.182V17.575z"/>
		<path style="fill:#F16522;" d="M63.143,6.975v6.132c0,2.868,1.788,4.721,4.555,4.721c2.718,0,4.617-1.94,4.617-4.721V6.975h-2.456
			v6.216c0,1.264-0.908,2.182-2.161,2.182c-1.948,0-2.1-1.671-2.1-2.182V6.975H63.143z"/>
		<path style="fill:#F16522;" d="M80.251,17.575h2.456v-6.153c0-2.868-1.788-4.721-4.556-4.721c-2.719,0-4.617,1.94-4.617,4.721
			v6.153h2.455v-6.216c0-1.286,0.89-2.182,2.162-2.182c1.949,0,2.099,1.671,2.099,2.182V17.575z"/>
		<path style="fill:#F16522;" d="M40.623,17.562l-0.005-5.213c0.035-3.198-2.106-5.675-5.427-5.675h-0.074
			c-3.1,0-5.487,2.383-5.521,5.545c-0.034,3.057,2.264,5.573,5.095,5.608h0.111c0.802,0,1.552-0.1,2.111-0.275v-2.359
			c-0.292,0.059-0.728,0.144-0.966,0.182c-0.289,0.046-0.676,0.096-0.882,0.096c-0.763,0-1.452-0.29-1.994-0.837
			c-0.604-0.611-0.959-1.496-0.95-2.366c0.02-1.721,1.322-3.07,2.965-3.07l0.037,0.001c1.643,0.019,2.93,1.398,2.93,3.139
			l-0.006,5.223H40.623z"/>
		<path style="fill:#F16522;" d="M92.17,2.967l0.002,3.401h0.002v3.764l0,0l0.001,2.029c0,1.741-1.286,3.12-2.93,3.141h-0.037
			c-1.643,0-2.945-1.349-2.964-3.07c-0.009-0.871,0.345-1.756,0.95-2.366c0.542-0.548,1.23-0.837,1.993-0.837
			c0.207,0,0.42,0.014,0.633,0.064c0.245,0.058,0.799,0.212,1.159,0.314V6.931c-0.553-0.164-1.28-0.257-2.054-0.257h-0.111
			c-2.832,0.034-5.107,2.55-5.073,5.608c0.035,3.162,2.399,5.545,5.499,5.545h0.001h0h0.073c3.129-0.037,5.463-2.477,5.427-5.675
			l0.004-9.184H92.17z"/>
	</g>
	<path style="fill:#FFFFFF;" d="M9.623,19.632l2.651,2.407l5.218-4.475c3.232-2.973,3.084-6.155,2.391-8.3
		c-0.828-2.562-3.338-5.554-7.689-5.554c-1.885,0-3.741,0.695-5.224,1.956C5.332,7.058,4.348,8.968,4.2,11.044
		c-0.138,1.933,0.481,3.783,1.743,5.211c0.92,1.039,1.915,1.869,2.671,2.23l2.409-1.996c-0.335-0.262-1.88-1.475-2.091-1.72
		c-0.857-0.997-1.292-2.294-1.193-3.558c0.092-1.166,0.62-2.214,1.487-2.952c0.862-0.732,1.936-1.136,3.024-1.136
		c1.288,0,2.522,0.56,3.386,1.536c0.79,0.894,1.173,2.038,1.078,3.223c-0.107,1.334-0.566,2.276-1.487,3.054
		C15.202,14.96,10.205,19.144,9.623,19.632z"/>
</g>
</svg>
